<svg xmlns="http://www.w3.org/2000/svg" xml:space="preserve" id="dish" x="0" y="0" version="1.1" viewBox="0 0 500 500" enable-background="new 0 0 500 500">
  <g fill="#092d3b" class="color000000 svgShape">
    <path d="M180.4 261.9c-8.3 4.8-15.4 11-21 18.6-3.9 5.3-7.1 11.2-9.3 17.4-1.5 4.2.6 8.8 4.8 10.3.9.3 1.8.5 2.7.5 3.3 0 6.4-2 7.5-5.3 1.7-4.8 4.1-9.3 7.1-13.3 4.3-5.8 9.7-10.6 16.1-14.3 3.8-2.2 5.2-7.1 3-10.9C189.1 261 184.2 259.7 180.4 261.9zM180.2 242.2c3.8-2.2 5.2-7.1 3-10.9-2.2-3.8-7.1-5.2-10.9-3-15.6 9-28.9 20.8-39.5 35.1-7.4 10-13.3 21-17.6 32.8-1.5 4.2.6 8.8 4.8 10.3.9.3 1.8.5 2.7.5 3.3 0 6.4-2 7.5-5.3 3.7-10.3 8.9-19.9 15.4-28.7C154.8 260.4 166.5 250.1 180.2 242.2z" fill="#092d3b" class="color000000 svgShape"></path>
    <path d="M461.3,350.1h-12.4c0,0,0,0,0,0c-0.9-24-6.1-47.4-15.5-69.5c-10-23.7-24.4-45-42.6-63.3c-18.3-18.3-39.6-32.6-63.3-42.6
		c-14.6-6.2-29.6-10.5-45.1-13v-24.6c0-17.8-14.5-32.4-32.4-32.4c-17.8,0-32.4,14.5-32.4,32.4v24.6c-15.5,2.5-30.6,6.9-45.1,13
		c-23.7,10-45,24.4-63.3,42.6c-18.3,18.3-32.6,39.6-42.6,63.3c-9.3,22.1-14.5,45.4-15.5,69.5c0,0,0,0,0,0H38.7
		c-12.4,0-22.6,10.1-22.6,22.6c0,12.4,10.1,22.6,22.6,22.6h422.6c12.4,0,22.6-10.1,22.6-22.6C483.9,360.2,473.7,350.1,461.3,350.1z
		 M233.7,137.1c0-9,7.3-16.3,16.3-16.3c9,0,16.3,7.3,16.3,16.3v22.6c-5.4-0.4-10.9-0.7-16.3-0.7s-10.9,0.2-16.3,0.7V137.1z
		 M217.6,178c5.3-0.9,10.6-1.7,16-2.1c5.4-0.5,10.8-0.7,16.3-0.7s11,0.2,16.3,0.7c5.4,0.5,10.8,1.2,16,2.1
		c83,14.9,146.7,85.8,150.4,172.1H67.2C70.9,263.8,134.7,192.9,217.6,178z M461.3,379.2H38.7c-3.6,0-6.5-2.9-6.5-6.5
		s2.9-6.5,6.5-6.5h422.6c3.6,0,6.5,2.9,6.5,6.5S464.9,379.2,461.3,379.2z" fill="#092d3b" class="color000000 svgShape"></path>
  </g>
</svg>
